<?xml version="1.0" standalone="no"?>
<!DOCTYPE svg PUBLIC "-//W3C//DTD SVG 20010904//EN"
 "http://www.w3.org/TR/2001/REC-SVG-20010904/DTD/svg10.dtd">
 <svg  version="1.0" xmlns="http://www.w3.org/2000/svg"
 width="2288.000000pt" height="500.000000pt" viewBox="0 0 1600.000000 1600.000000"
 preserveAspectRatio="xMidYMid meet" >

<g id="chalja" transform="translate(.00000,1600.000000) scale(0.100000,-0.100000)"
fill="white" opacity="0.8"  >
<path d="M5584 15381 c-76 -35 -117 -118 -96 -194 6 -23 8 -45 4 -49 -17 -16
-3496 -2540 -3508 -2545 -7 -2 -27 6 -44 18 -65 48 -178 23 -227 -50 -55 -81
-31 -192 51 -238 15 -8 -47 -205 -656 -2081 l-673 -2072 -33 0 c-104 0 -187
-101 -168 -205 13 -70 95 -135 168 -135 l33 0 670 -2061 c369 -1134 671 -2067
673 -2073 1 -6 -11 -18 -26 -27 -33 -19 -72 -92 -72 -135 1 -41 33 -107 65
-132 62 -49 158 -49 210 -2 20 19 46 0 1775 -1256 965 -701 1758 -1278 1762
-1282 3 -4 2 -26 -4 -49 -31 -112 73 -226 190 -208 53 8 116 60 132 111 l12
34 2178 0 2178 0 12 -34 c16 -51 79 -103 132 -111 117 -18 221 96 190 208 -6
23 -7 45 -3 49 4 5 796 581 1760 1282 l1754 1273 34 -23 c18 -12 47 -25 62
-29 38 -8 101 9 136 37 32 25 64 91 65 132 0 43 -37 113 -71 133 -16 10 -28
23 -27 29 2 6 305 939 673 2073 l670 2061 33 0 c73 0 155 65 168 135 19 104
-64 205 -168 205 l-33 0 -673 2072 c-610 1876 -671 2073 -656 2081 82 46 106
157 51 238 -49 73 -162 98 -227 50 -17 -12 -37 -20 -44 -18 -12 5 -3491 2529
-3508 2545 -4 4 -2 26 4 49 31 112 -73 226 -190 208 -53 -8 -116 -60 -132
-111 l-12 -34 -2178 0 -2178 0 -11 33 c-21 63 -99 118 -166 117 -11 0 -38 -9
-61 -19z m4596 -179 c0 -4 -489 -167 -1087 -361 -984 -320 -1091 -353 -1123
-344 -118 32 -2150 699 -2150 705 0 4 981 8 2180 8 1199 0 2180 -4 2180 -8z
m-3303 -392 c576 -187 1048 -342 1050 -343 1 -2 -306 -104 -683 -226 -377
-123 -687 -221 -689 -219 -1 1 -179 245 -394 541 -387 533 -391 538 -375 562
9 14 23 25 30 25 8 0 485 -153 1061 -340z m3337 315 c16 -24 12 -29 -375 -562
-215 -296 -393 -540 -394 -541 -2 -2 -313 96 -690 219 -378 123 -681 226 -674
228 77 30 2079 679 2095 680 13 1 28 -9 38 -24z m-4687 -29 c-8 -19 -1306
-1807 -1331 -1832 -15 -15 -342 -126 -1105 -373 -596 -194 -1086 -349 -1090
-346 -3 4 1 10 9 15 8 5 800 580 1760 1278 960 699 1749 1271 1754 1271 4 1 6
-5 3 -13z m6718 -1269 c963 -699 1752 -1272 1754 -1274 30 -23 -168 38 -1090
338 -761 247 -1090 358 -1105 373 -27 26 -1323 1813 -1331 1834 -5 11 -3 13 8
7 8 -5 802 -580 1764 -1278z m-6632 1236 c16 -5 17 -46 17 -677 l0 -671 -683
-221 c-375 -122 -683 -220 -685 -219 -2 2 291 408 650 904 475 655 657 899
668 894 8 -3 23 -8 33 -10z m512 -522 c216 -298 383 -536 377 -540 -24 -14
-383 -124 -388 -118 -4 3 -91 266 -195 584 -162 498 -203 632 -185 612 2 -2
178 -244 391 -538z m3956 -74 c-104 -318 -192 -581 -195 -584 -5 -6 -364 104
-388 118 -6 4 162 244 378 542 214 294 390 527 391 518 2 -9 -82 -276 -186
-594z m1007 -288 c359 -496 652 -902 650 -904 -2 -1 -310 97 -685 219 l-683
221 0 671 0 670 28 11 c15 6 29 11 32 11 3 1 299 -404 658 -899z m-5209 285
c106 -327 190 -599 185 -603 -5 -4 -89 -34 -187 -65 -99 -32 -185 -60 -193
-63 -12 -4 -14 92 -14 661 0 366 4 666 8 666 4 0 95 -268 201 -596z m4451 -70
c0 -569 -2 -665 -14 -661 -8 3 -94 31 -193 63 -98 31 -182 61 -187 65 -10 8
373 1199 386 1199 4 0 8 -300 8 -666z m-1622 -179 c380 -124 694 -225 697
-225 3 0 5 -4 5 -9 0 -13 -1400 -1936 -1410 -1936 -10 0 -1410 1922 -1410
1936 0 4 24 15 53 23 28 9 340 110 692 225 352 115 649 210 660 210 11 1 332
-100 713 -224z m-1453 -1229 c393 -542 715 -987 715 -990 0 -3 -176 -247 -391
-543 -280 -385 -396 -537 -408 -535 -9 2 -36 7 -60 10 l-44 7 -468 1440 c-258
792 -469 1445 -469 1451 0 9 361 137 402 143 4 1 329 -442 723 -983z m2425
913 c105 -34 190 -66 190 -73 0 -6 -211 -659 -469 -1451 l-468 -1440 -44 -7
c-24 -3 -51 -8 -60 -10 -12 -2 -128 150 -408 535 -215 296 -391 540 -391 543
0 3 322 448 716 990 498 685 720 984 730 980 8 -3 100 -33 204 -67z m-3551
-201 c21 -68 233 -720 470 -1449 l431 -1326 -41 -42 c-23 -22 -45 -41 -50 -41
-5 0 -112 33 -237 74 -125 41 -408 133 -629 206 l-403 131 0 1219 0 1219 198
64 c108 36 202 65 209 66 7 1 29 -52 52 -121z m3997 56 l204 -65 0 -1219 0
-1219 -397 -130 c-728 -237 -864 -281 -873 -281 -4 0 -26 19 -49 41 l-41 42
431 1326 c237 729 449 1381 470 1449 22 67 42 122 45 122 3 0 98 -30 210 -66z
m-4496 -1290 c0 -663 -3 -1203 -7 -1201 -5 3 -516 170 -1138 372 -621 202
-1133 370 -1137 373 -8 8 830 1167 864 1196 20 16 1370 463 1406 465 9 1 12
-246 12 -1205z m5450 980 c382 -124 703 -233 712 -242 38 -37 866 -1187 860
-1194 -4 -3 -515 -171 -1137 -373 -621 -202 -1133 -369 -1137 -372 -5 -2 -8
538 -8 1201 0 663 3 1206 8 1206 4 0 320 -102 702 -226z m-6942 -262 c-13 -33
-844 -1162 -852 -1159 -6 3 -294 96 -639 208 l-628 204 3 34 3 35 1050 342
c578 188 1054 343 1058 343 5 1 7 -3 5 -7z m8782 -335 l1055 -343 3 -35 3 -34
-628 -204 c-345 -112 -633 -205 -639 -208 -6 -2 -199 256 -430 574 -397 546
-430 593 -422 593 2 0 478 -155 1058 -343z m-10282 -657 c340 -110 620 -202
625 -203 8 -2 -216 -317 -236 -331 -9 -6 -171 107 -512 354 -275 199 -504 366
-509 371 -6 6 -5 9 3 9 7 0 290 -90 629 -200z m11357 191 c-6 -5 -235 -172
-510 -371 -341 -247 -503 -360 -512 -354 -7 5 -64 81 -128 169 l-116 160 63
20 c35 11 313 102 618 201 522 171 608 197 585 175z m-11506 -400 c275 -200
501 -368 501 -373 0 -11 -233 -337 -240 -337 -5 0 -772 1056 -779 1072 -2 5 1
8 6 6 6 -2 236 -168 512 -368z m11539 361 c-6 -16 -773 -1071 -778 -1071 -10
0 -235 322 -235 335 0 13 989 742 1008 743 5 1 7 -3 5 -7z m-11704 -561 c213
-293 389 -538 392 -545 2 -6 -170 -249 -382 -541 -212 -291 -403 -555 -425
-585 l-39 -55 0 1121 0 1121 33 10 c17 5 32 9 33 9 1 -1 175 -241 388 -535z
m11806 -605 l0 -1121 -39 55 c-22 30 -213 294 -425 585 -212 292 -384 534
-383 540 2 5 179 251 393 546 l389 536 32 -10 33 -10 0 -1121z m-12971 -2098
c-369 -507 -675 -925 -681 -927 -6 -2 -9 3 -6 10 3 8 306 939 673 2069 367
1130 670 2060 674 2065 3 6 7 -508 9 -1142 l2 -1151 -671 -924z m13696 1152
c367 -1130 670 -2061 673 -2069 3 -7 0 -12 -6 -10 -6 2 -312 419 -681 927
l-671 924 0 1151 c0 681 4 1147 9 1142 5 -6 309 -935 676 -2065z m-10431 1379
c611 -199 1132 -368 1159 -376 l47 -14 0 -674 c0 -651 -1 -675 -19 -675 -10 0
-34 -10 -52 -23 l-35 -24 -1229 894 c-677 492 -1230 899 -1230 906 0 12 235
345 244 346 3 1 505 -162 1115 -360z m8391 193 c66 -92 120 -172 120 -179 0
-7 -553 -414 -1230 -906 l-1229 -894 -35 24 c-18 13 -42 23 -52 23 -18 0 -19
24 -19 674 l0 675 83 25 c45 14 564 183 1152 375 589 192 1075 349 1080 350 6
0 64 -75 130 -167z m-4420 -386 l384 -529 -21 -30 c-12 -16 -23 -51 -26 -78
l-5 -49 -363 -119 -364 -119 -364 119 -363 119 -5 49 c-3 27 -14 62 -26 78
l-21 30 386 532 c213 292 390 530 395 529 5 -2 182 -241 393 -532z m-4121
-731 c1045 -759 1225 -893 1220 -910 -3 -11 -8 -38 -11 -61 l-5 -41 -636 -206
c-350 -114 -636 -206 -637 -204 -1 1 -317 436 -702 967 -385 531 -706 975
-713 986 -12 20 -3 35 110 193 69 94 129 170 136 169 6 -2 563 -403 1238 -893z
m8826 724 c113 -157 122 -174 110 -193 -7 -11 -328 -455 -713 -986 -385 -531
-701 -966 -702 -967 -1 -2 -287 90 -637 204 l-636 206 -5 41 c-3 23 -8 50 -11
61 -5 17 175 152 1221 912 676 490 1233 892 1238 892 6 1 67 -76 135 -170z
m-6784 -415 l612 -198 6 -44 c3 -24 15 -61 27 -82 l22 -38 -224 -308 -224
-308 -363 -117 -364 -118 -29 34 c-16 18 -47 40 -69 49 l-40 16 0 661 c0 625
1 661 18 657 9 -3 292 -94 628 -204z m4014 -454 l0 -660 -40 -16 c-22 -9 -53
-31 -69 -49 l-29 -34 -364 118 -363 117 -224 308 -224 308 22 38 c12 21 24 58
27 82 l6 44 617 201 c339 111 622 201 629 202 9 1 12 -137 12 -659z m-6875
-315 c385 -530 701 -967 702 -972 2 -4 -511 -175 -1140 -379 l-1142 -371 -3
744 -2 744 436 599 c240 330 439 600 442 600 4 0 322 -434 707 -965z m10239
365 l436 -600 -2 -743 -3 -744 -1142 371 c-629 204 -1142 375 -1140 379 5 16
1402 1937 1409 1937 3 0 203 -270 442 -600z m-6101 -11 c174 -56 317 -105 317
-109 0 -3 -57 -24 -126 -47 l-125 -42 -187 136 c-183 132 -243 181 -212 171 8
-3 158 -52 333 -109z m1147 102 c0 -5 -90 -75 -199 -154 l-200 -146 -125 42
c-70 23 -126 44 -126 47 0 4 145 54 323 112 177 58 323 107 325 107 1 1 2 -3
2 -8z m-1307 -183 l180 -132 -74 -23 c-41 -12 -78 -23 -84 -22 -8 0 -202 259
-229 307 -17 29 23 4 207 -130z m1340 128 c-26 -46 -220 -305 -228 -305 -5 -1
-43 10 -84 22 l-75 23 188 137 c181 132 216 153 199 123z m-1821 -265 l-77
-235 -132 -42 c-73 -23 -130 -36 -126 -30 13 21 376 521 392 539 8 10 17 15
18 10 2 -4 -32 -113 -75 -242z m340 107 c57 -78 106 -147 111 -154 5 -9 -30
-25 -132 -58 -77 -25 -142 -46 -145 -46 -3 0 -6 85 -6 189 l0 189 28 10 c15 6
30 11 34 11 3 1 53 -63 110 -141z m1557 131 l31 -11 0 -189 c0 -104 -3 -189
-6 -189 -3 0 -68 21 -145 46 -102 33 -137 49 -132 58 14 22 214 296 217 296 2
0 17 -5 35 -11z m343 -279 c101 -140 187 -260 191 -266 4 -6 -53 7 -126 30
l-132 42 -77 235 c-43 128 -78 238 -78 244 0 18 37 -29 222 -285z m-2112 72
l0 -198 -71 -23 c-39 -12 -73 -20 -76 -18 -2 3 23 92 57 198 70 217 77 239 85
239 3 0 5 -89 5 -198z m1925 -25 c37 -115 65 -211 62 -214 -3 -2 -37 6 -76 18
l-71 23 0 200 c0 121 4 196 9 191 5 -6 39 -104 76 -218z m-860 33 c72 -23 133
-46 138 -49 7 -7 -244 -194 -275 -206 -14 -5 -287 184 -291 201 -2 8 273 104
288 100 6 -2 69 -22 140 -46z m-335 -176 c80 -58 145 -109 145 -114 0 -15
-226 -173 -235 -164 -9 11 -223 304 -233 321 -7 12 118 61 158 62 11 0 85 -47
165 -105z m633 80 c52 -17 75 -30 70 -37 -10 -17 -224 -310 -233 -321 -9 -9
-235 149 -235 164 0 12 287 219 305 220 8 0 50 -12 93 -26z m-875 -215 c87
-120 120 -174 113 -182 -5 -7 -61 -49 -124 -95 l-114 -82 -162 0 -161 0 2 217
3 217 145 47 c80 26 152 47 160 48 8 0 70 -76 138 -170z m1157 123 l150 -48 3
-217 2 -217 -161 0 -162 0 -114 82 c-63 46 -119 88 -124 95 -7 8 26 62 113
182 68 94 128 170 133 170 6 1 78 -21 160 -47z m-1645 -272 l0 -210 -146 0
c-124 0 -145 2 -141 15 4 8 30 88 58 179 l53 166 85 29 c47 16 87 30 89 30 1
1 2 -93 2 -209z m2069 -16 c28 -91 54 -171 58 -179 4 -13 -17 -15 -141 -15
l-146 0 0 209 0 210 88 -30 89 -30 52 -165z m-1023 70 c66 -48 120 -87 121
-88 2 -1 -25 -41 -60 -89 l-62 -87 -125 0 -125 0 -62 87 c-35 48 -62 88 -60
89 36 29 242 174 247 174 4 0 61 -39 126 -86z m-1292 4 c-13 -40 -38 -117 -55
-170 l-30 -98 -185 0 -184 0 89 123 88 122 134 47 c74 26 142 47 151 47 15 1
14 -7 -8 -71z m2475 24 l134 -47 88 -122 89 -123 -184 0 -185 0 -30 98 c-17
53 -42 130 -55 170 -22 64 -23 72 -8 71 9 0 77 -21 151 -47z m-2829 -77 c0 -3
-34 -52 -76 -110 l-76 -105 -256 0 c-140 0 -253 3 -250 6 7 6 627 211 646 213
6 1 12 -1 12 -4z m3376 -101 c178 -58 324 -107 324 -110 0 -2 -114 -4 -254 -4
l-254 0 -76 105 c-75 103 -82 115 -70 115 3 0 152 -48 330 -106z m-8028 -996
l-3 -362 -635 -206 -635 -206 -19 24 c-17 22 -18 27 -5 47 8 12 302 419 654
903 l640 881 3 -360 c1 -197 1 -522 0 -721z m13005 175 c345 -474 632 -871
638 -882 10 -15 9 -23 -7 -43 l-19 -24 -635 206 -635 206 -3 724 c-2 706 -2
722 16 699 11 -13 301 -412 645 -886z m-7063 787 c29 -39 50 -73 48 -76 -3 -2
-72 -3 -153 -2 l-147 3 98 72 c55 40 100 72 101 73 0 0 25 -32 53 -70z m643
-25 l69 -50 -148 -3 c-81 -1 -149 0 -152 2 -2 3 19 37 48 76 l52 71 32 -24
c17 -12 62 -45 99 -72z m-2123 -101 c0 -15 -95 -134 -105 -131 -5 2 -90 31
-187 63 -98 32 -178 62 -178 66 0 5 106 8 235 8 129 0 235 -3 235 -6z m440 -1
c0 -8 -83 -266 -88 -273 -5 -7 -392 124 -392 133 0 5 23 40 51 78 l51 69 189
0 c104 0 189 -3 189 -7z m350 -106 l0 -113 -96 -68 -96 -69 -104 33 c-58 19
-103 39 -101 45 3 5 21 64 42 130 20 66 41 128 46 138 9 15 27 17 159 17 l150
0 0 -113z m295 104 c-6 -5 -64 -48 -130 -96 l-120 -87 -3 83 c-2 45 -1 88 2
96 4 10 36 13 133 13 74 0 123 -4 118 -9z m535 -62 c28 -40 54 -78 57 -85 3
-10 -185 -282 -313 -452 -1 -2 -122 35 -268 82 l-266 87 0 97 0 98 167 122
168 122 201 0 202 0 52 -71z m174 59 c-25 -41 -77 -108 -84 -108 -7 0 -59 67
-84 108 -5 9 14 12 84 12 70 0 89 -3 84 -12z m629 -110 l167 -122 0 -98 0 -97
-266 -87 c-146 -47 -267 -84 -268 -82 -128 170 -316 442 -313 452 3 7 29 45
57 85 l52 71 202 0 201 0 168 -122z m163 109 c3 -8 4 -51 2 -96 l-3 -83 -120
87 c-66 48 -124 91 -129 96 -6 5 43 9 117 9 97 0 129 -3 133 -13z m396 -132
c25 -77 47 -142 47 -146 1 -3 -46 -20 -103 -39 l-104 -33 -96 69 -96 68 0 113
0 114 153 -3 152 -3 47 -140z m427 76 c28 -38 51 -73 51 -78 0 -9 -387 -140
-392 -133 -5 7 -88 265 -88 273 0 4 85 7 189 7 l189 0 51 -69z m481 61 c0 -4
-80 -34 -177 -66 -98 -32 -183 -61 -188 -63 -10 -3 -105 116 -105 131 0 3 106
6 235 6 129 0 235 -3 235 -8z m-4661 -81 c12 -16 41 -37 66 -47 l45 -19 0
-383 0 -382 -225 -310 -225 -309 -31 11 c-27 9 -45 9 -121 -4 -11 -2 -130 154
-402 527 -212 292 -386 532 -386 535 0 6 1225 408 1247 409 6 1 21 -12 32 -28z
m477 -27 c118 -38 172 -60 167 -67 -5 -9 -154 -217 -168 -235 -1 -1 -53 67
-114 152 -111 154 -112 156 -95 181 9 14 21 25 26 25 5 0 88 -25 184 -56z
m4218 31 c17 -25 16 -27 -95 -181 -61 -85 -113 -153 -114 -152 -33 42 -174
243 -172 245 7 6 332 111 348 112 9 1 24 -10 33 -24z m923 -177 c343 -111 623
-205 623 -208 0 -3 -174 -243 -386 -535 -272 -373 -391 -529 -402 -527 -76 13
-94 13 -121 4 l-31 -11 -225 309 -225 310 0 384 0 384 31 7 c17 4 48 24 68 46
20 21 38 38 40 39 3 0 285 -91 628 -202z m-5284 -32 l116 -159 -30 -41 c-53
-73 -68 -91 -72 -86 -10 12 -144 440 -139 445 3 3 6 4 7 3 1 -2 55 -75 118
-162z m4353 -66 c-39 -121 -75 -219 -79 -217 -5 1 -29 30 -52 63 l-44 61 117
160 c64 89 120 159 123 157 4 -2 -26 -103 -65 -224z m-4443 -30 l78 -241 -67
-92 c-37 -51 -76 -103 -86 -116 -18 -23 -18 -15 -18 333 0 196 4 356 8 356 4
0 43 -108 85 -240z m4567 -116 c0 -348 0 -356 -18 -333 -10 13 -49 65 -86 116
l-67 92 78 241 c42 132 81 240 85 240 4 0 8 -160 8 -356z m-3903 250 c130 -42
203 -70 200 -77 -2 -7 -25 -75 -51 -152 l-46 -140 -128 -92 c-69 -50 -127 -91
-128 -90 -94 121 -252 352 -246 361 5 6 48 66 96 134 49 67 90 122 93 122 3 0
97 -30 210 -66z m3449 -56 c48 -68 91 -128 96 -134 6 -9 -152 -240 -246 -361
-1 -1 -58 40 -128 90 l-127 92 -51 149 c-27 82 -48 151 -46 154 6 5 388 130
402 131 7 1 51 -54 100 -121z m-1718 -101 l153 -212 -148 -47 c-81 -26 -155
-48 -163 -48 -8 0 -82 22 -163 48 l-148 47 153 212 c84 117 155 212 158 212 3
0 74 -95 158 -212z m-1078 62 l0 -71 -32 7 c-48 11 -103 31 -103 38 0 7 117
95 128 96 4 1 7 -31 7 -70z m1915 24 c36 -26 62 -50 58 -54 -8 -7 -109 -39
-125 -39 -4 0 -8 32 -8 70 0 39 2 70 5 70 3 0 34 -21 70 -47z m-2232 -39 c65
-22 77 -29 65 -39 -29 -28 -238 -175 -238 -168 0 23 76 233 85 233 5 0 45 -12
88 -26z m2610 -87 c20 -62 37 -116 37 -120 0 -7 -209 140 -238 168 -11 10 -1
17 60 38 40 14 80 26 88 26 11 1 26 -32 53 -112z m-2383 15 l85 -29 3 -279 2
-279 -257 -83 c-142 -46 -261 -83 -264 -82 -7 0 -109 137 -114 154 -3 6 24 96
58 200 l62 188 160 118 c88 65 165 119 170 119 6 1 49 -12 95 -27z m2283 -91
l163 -119 59 -184 c32 -101 60 -188 62 -193 3 -9 -80 -131 -108 -159 -5 -6
-108 23 -269 75 l-260 84 2 279 3 279 80 28 c44 15 86 28 92 28 7 1 86 -53
176 -118z m-4686 -493 l392 -541 -19 -27 c-10 -14 -22 -38 -25 -53 l-7 -27
-1529 0 -1529 0 0 218 0 218 1158 376 c636 207 1159 377 1162 377 3 0 181
-244 397 -541z m2916 417 c64 -22 116 -43 115 -47 -2 -4 -43 -64 -93 -132
l-90 -125 -143 -46 c-78 -25 -149 -48 -157 -51 -13 -5 -15 29 -15 259 l0 265
133 -42 c72 -24 185 -60 250 -81z m1374 -401 c-1 -2 -72 20 -157 47 l-155 50
-90 125 c-49 68 -91 128 -93 132 -1 5 109 44 245 89 l248 80 3 -260 c1 -143 1
-261 -1 -263z m4101 146 l1152 -374 0 -218 0 -218 -1527 1 -1528 0 -26 54 -26
55 391 539 c215 297 396 539 401 537 6 -1 529 -171 1163 -376z m-6857 198 c65
-90 119 -165 119 -168 0 -6 -225 -170 -233 -170 -9 0 -119 352 -114 364 8 21
101 145 105 141 2 -2 57 -77 123 -167z m3938 97 c28 -38 51 -73 51 -78 0 -16
-111 -357 -117 -357 -11 0 -228 162 -228 171 0 9 237 340 241 336 1 -1 25 -33
53 -72z m-2254 -139 l130 -43 -160 -51 c-88 -28 -186 -60 -218 -71 -39 -14
-55 -16 -50 -7 22 35 157 216 163 216 3 0 64 -20 135 -44z m606 -58 c41 -56
77 -107 82 -114 5 -9 -11 -7 -50 7 -32 11 -130 43 -218 71 l-160 51 125 43
c69 23 130 43 136 43 6 1 44 -45 85 -101z m-2497 -93 c30 -93 53 -172 50 -176
-6 -10 -280 -209 -288 -209 -3 0 -6 68 -6 151 l0 151 93 128 c50 70 93 127 94
126 2 -2 27 -78 57 -171z m4339 24 l77 -107 0 -151 c0 -83 -3 -151 -6 -151 -8
0 -282 199 -288 209 -3 4 20 84 51 179 54 169 55 172 72 150 10 -13 52 -71 94
-129z m-3788 0 c-25 -74 -47 -140 -50 -148 -4 -9 -25 12 -60 60 -41 57 -51 77
-42 86 17 17 191 142 194 139 2 -1 -17 -63 -42 -137z m3163 43 l73 -53 -38
-52 c-70 -97 -72 -100 -78 -86 -10 28 -95 283 -95 287 0 4 37 -22 138 -96z
m-1333 -75 l249 -82 168 -230 167 -230 1 -283 0 -284 -169 -232 -169 -232
-271 -88 -271 -87 -271 87 -271 88 -169 232 -169 232 0 282 0 282 166 229 c92
126 171 232 175 235 5 3 125 43 266 89 180 59 267 83 288 80 17 -3 142 -42
280 -88z m-1963 -90 c32 -45 58 -89 58 -97 0 -9 -15 -61 -33 -115 -38 -113
-33 -108 -164 -148 l-81 -25 -47 145 c-25 80 -44 147 -41 150 20 20 233 172
241 172 6 0 36 -37 67 -82z m3522 2 c61 -45 115 -85 119 -89 5 -4 -12 -73 -38
-153 l-47 -145 -81 25 c-131 40 -126 35 -164 148 -18 54 -33 107 -33 115 0 19
110 179 124 180 4 0 58 -37 120 -81z m-2542 -126 c-43 -60 -102 -141 -131
-180 -29 -40 -54 -73 -57 -73 -2 0 -4 63 -4 139 l0 139 123 40 c67 22 128 40
135 41 7 1 -23 -47 -66 -106z m1439 66 l129 -41 0 -139 c0 -76 -2 -139 -4
-139 -3 0 -28 33 -57 73 -29 39 -88 120 -131 180 -43 59 -76 107 -72 107 3 0
64 -18 135 -41z m-3121 -128 l0 -139 -202 -146 c-110 -80 -203 -144 -206 -141
-3 2 29 51 70 107 269 371 333 458 335 458 2 0 3 -62 3 -139z m4931 -116 c225
-310 222 -305 217 -311 -3 -2 -96 62 -206 142 l-202 146 0 141 c0 80 4 137 9
132 4 -6 87 -118 182 -250z m-4498 -95 c-6 -6 -235 -83 -370 -124 -23 -7 -23
-6 -23 82 0 104 -17 83 175 222 l139 101 44 -137 c24 -75 40 -140 35 -144z
m1017 117 l0 -163 -90 -124 c-50 -69 -94 -126 -98 -127 -8 -3 -302 401 -302
414 0 8 447 159 478 162 9 1 12 -38 12 -162z m2103 82 c125 -40 227 -77 227
-82 0 -13 -294 -417 -302 -414 -4 1 -48 58 -98 127 l-90 124 0 164 c0 152 1
164 18 160 9 -3 119 -38 245 -79z m977 -22 c184 -133 170 -115 170 -219 0 -88
0 -89 -22 -82 -136 41 -365 118 -371 124 -12 11 74 280 87 273 6 -4 67 -47
136 -96z m-3650 -29 c0 -8 -129 -52 -135 -46 -3 2 8 41 22 85 l27 81 43 -56
c23 -31 43 -60 43 -64z m3116 -46 c-6 -5 -136 38 -136 45 0 3 19 31 43 63 l42
58 27 -81 c15 -44 26 -82 24 -85z m-2913 -229 c81 -112 147 -207 147 -212 0
-9 -124 -184 -281 -398 l-38 -51 -94 31 -94 31 -62 186 c-33 103 -61 193 -61
200 0 7 28 98 62 201 l61 187 91 30 c83 27 92 28 107 13 9 -9 82 -107 162
-218z m2933 174 c1 -1 30 -89 65 -195 l63 -192 -64 -194 -63 -193 -94 -31 -94
-30 -38 51 c-178 243 -281 388 -281 397 0 9 103 154 281 397 l38 51 93 -30
c51 -16 94 -30 94 -31z m-7816 -157 l0 -210 -632 0 c-383 0 -628 4 -623 9 9 8
1227 409 1248 410 4 1 7 -93 7 -209z m12985 3 c330 -107 604 -199 610 -204 5
-5 -241 -9 -623 -9 l-632 0 0 211 0 210 23 -7 c12 -3 292 -94 622 -201z
m-8515 130 c0 -3 -21 -72 -46 -152 l-47 -146 -38 115 c-22 63 -39 119 -39 125
0 6 35 23 78 37 87 29 92 31 92 21z m3498 -24 c39 -12 72 -28 72 -34 0 -6 -17
-62 -39 -125 l-38 -115 -47 146 c-51 161 -51 163 -33 156 6 -2 45 -15 85 -28z
m-4168 -62 l0 -83 -52 -17 c-273 -88 -329 -104 -326 -96 3 9 367 279 375 279
2 0 3 -37 3 -83z m4943 -61 c97 -70 177 -132 177 -136 0 -7 -58 10 -327 97
l-53 17 0 83 c0 67 3 82 13 76 8 -4 93 -66 190 -137z m-4438 -59 c25 -79 45
-149 45 -156 0 -23 -91 -301 -98 -300 -4 0 -97 31 -207 67 l-200 67 -3 166 -2
165 202 66 c112 37 206 67 210 67 4 1 28 -64 53 -142z m3998 73 l197 -64 0
-166 0 -166 -194 -62 c-107 -34 -201 -65 -209 -68 -13 -4 -25 23 -61 139 -25
79 -46 150 -46 157 0 7 21 78 46 157 29 93 50 143 57 141 7 -3 101 -33 210
-68z m-3055 -340 l-3 -110 -74 102 c-41 57 -75 110 -75 118 0 8 34 61 75 118
l74 102 3 -110 c1 -60 1 -160 0 -220z m1926 220 c42 -57 76 -107 76 -110 0 -5
-143 -207 -156 -219 -2 -2 -4 96 -4 219 0 123 2 221 4 219 3 -3 39 -52 80
-109z m-3374 -110 c0 -82 -1 -150 -2 -150 -2 0 -84 26 -183 58 l-180 58 3 34
c2 19 5 36 5 36 7 5 335 113 345 113 9 1 12 -35 12 -149z m4927 93 l173 -58 0
-35 0 -36 -165 -53 c-91 -28 -172 -54 -180 -58 -13 -4 -15 18 -15 146 0 83 3
151 7 151 4 0 85 -26 180 -57z m-8727 -324 c0 -165 -3 -210 -12 -206 -7 2
-287 93 -623 202 -335 108 -614 201 -619 206 -6 5 256 9 622 9 l632 0 0 -211z
m3105 184 c3 -15 15 -39 25 -53 l19 -26 -393 -540 c-216 -296 -397 -538 -402
-538 -5 1 -528 170 -1161 375 l-1153 374 0 218 0 217 1529 0 1529 0 7 -27z
m9195 -190 l0 -218 -1153 -374 c-633 -205 -1156 -374 -1161 -375 -5 0 -186
242 -402 538 l-393 539 19 27 c10 14 22 38 25 53 l7 27 1529 0 1529 0 0 -217z
m1295 208 c-6 -5 -284 -98 -620 -206 -335 -109 -616 -200 -622 -202 -10 -4
-13 41 -13 206 l0 211 632 0 c366 0 628 -4 623 -9z m-8435 -140 l90 -124 0
-163 0 -164 -25 6 c-83 21 -469 154 -467 161 11 24 298 412 304 410 4 -1 48
-58 98 -126z m2272 -74 c80 -111 145 -206 145 -212 -2 -8 -380 -139 -462 -159
l-25 -6 0 163 0 164 92 127 c50 69 94 126 97 126 3 0 72 -91 153 -203z m-7967
-70 l530 -172 3 -724 c1 -399 0 -723 -2 -720 -8 9 -1288 1772 -1298 1789 -9
13 -7 23 8 42 l18 25 106 -34 c58 -18 344 -111 635 -206z m4158 177 l177 -59
0 -83 0 -83 -53 38 c-270 195 -327 237 -327 246 0 5 6 7 13 4 6 -2 92 -31 190
-63z m802 -76 c25 -78 45 -146 45 -149 0 -7 -160 38 -169 47 -5 4 70 244 76
244 1 0 23 -64 48 -142z m3615 -94 c0 -10 -160 -65 -169 -58 -1 1 18 69 44
151 l48 148 38 -115 c22 -63 39 -119 39 -126z m880 228 c0 -7 -80 -67 -327
-245 l-53 -38 0 83 0 83 183 62 c199 67 197 67 197 55z m4730 -47 c0 -5 -1228
-1702 -1292 -1784 -18 -23 -18 -6 -16 700 l3 724 635 206 634 206 18 -22 c10
-13 18 -26 18 -30z m-10050 -141 l200 -145 0 -142 c0 -77 -4 -137 -8 -131 -21
23 -402 552 -402 558 0 3 2 6 5 6 3 0 95 -66 205 -146z m5350 140 c0 -6 -381
-535 -402 -558 -4 -6 -8 54 -8 131 l0 142 198 145 c188 138 212 154 212 140z
m-9621 -952 l671 -923 0 -1152 c0 -675 -4 -1147 -9 -1142 -5 6 -309 935 -676
2065 -367 1130 -670 2061 -673 2068 -3 8 0 13 6 11 6 -2 313 -419 681 -927z
m3941 913 c25 0 54 3 64 5 15 4 62 -55 242 -300 l223 -305 1 -387 0 -386 -31
-7 c-17 -4 -48 -25 -69 -46 l-38 -40 -626 203 c-354 115 -624 207 -622 213 2
6 176 248 387 538 337 463 386 526 404 519 11 -4 40 -7 65 -7z m5818 -2 c20 4
45 8 54 9 12 2 126 -148 402 -527 212 -291 386 -532 386 -535 0 -3 -282 -96
-626 -208 l-626 -203 -38 40 c-21 21 -52 42 -69 46 l-31 7 0 385 0 385 187
256 c102 141 204 280 225 309 37 50 39 52 69 41 17 -6 47 -8 67 -5z m4609 4
c-3 -7 -305 -937 -672 -2067 -367 -1130 -671 -2059 -676 -2065 -5 -5 -9 468
-9 1142 l0 1152 672 925 c370 510 677 926 681 926 5 0 7 -6 4 -13z m-9643
-112 c102 -33 186 -64 186 -68 0 -27 -84 -267 -94 -266 -6 0 -76 49 -156 108
l-145 107 -3 93 c-2 76 0 92 12 89 8 -2 98 -30 200 -63z m4444 -27 l-3 -92
-145 -107 c-80 -59 -150 -108 -156 -108 -10 -1 -94 239 -94 266 0 7 359 130
388 132 10 1 12 -21 10 -91z m-4108 -83 c47 -15 90 -32 96 -39 13 -12 74 -192
74 -217 0 -15 -114 -179 -125 -179 -5 0 -219 153 -238 170 -12 11 83 302 97
297 6 -2 49 -17 96 -32z m3715 -111 c25 -81 43 -150 38 -154 -19 -17 -233
-170 -238 -170 -11 0 -125 164 -125 179 0 22 60 204 72 216 7 8 178 72 200 74
3 1 27 -65 53 -145z m-2655 -71 c60 -84 107 -153 103 -153 -4 0 -65 19 -135
42 l-128 42 0 141 1 140 24 -30 c14 -16 74 -99 135 -182z m1600 69 l0 -138
-131 -43 c-72 -23 -132 -41 -134 -39 -3 3 254 358 261 358 2 0 4 -62 4 -138z
m-2439 42 c30 -9 58 -20 63 -24 8 -8 -66 -120 -79 -120 -2 0 -13 30 -26 68
-12 37 -24 73 -27 80 -6 16 3 15 69 -4z m3187 4 c-3 -7 -15 -43 -27 -80 -13
-38 -24 -68 -26 -68 -13 0 -87 112 -79 120 10 9 100 38 123 39 7 1 11 -5 9
-11z m-3813 -94 c72 -52 136 -99 143 -103 11 -6 2 -44 -44 -185 -31 -97 -58
-175 -59 -174 -1 2 -43 60 -94 130 l-91 126 0 151 c0 83 3 151 8 151 4 0 66
-43 137 -96z m4515 -55 l0 -151 -94 -128 -94 -129 -57 176 c-45 140 -54 178
-43 184 7 4 72 51 143 103 72 53 133 96 138 96 4 0 7 -68 7 -151z m-7299 -276
c621 -202 1128 -371 1127 -375 -6 -16 -1403 -1937 -1410 -1938 -3 0 -202 270
-442 600 l-436 600 0 746 c0 676 1 746 16 740 9 -3 524 -171 1145 -373z m3795
295 l254 -82 -2 -279 -3 -280 -89 -28 c-50 -15 -95 -25 -100 -22 -6 4 -81 57
-166 119 l-156 113 -59 183 c-32 101 -60 188 -62 193 -4 13 105 165 119 165 6
0 125 -37 264 -82z m2678 5 c31 -43 55 -82 53 -88 -2 -5 -30 -92 -62 -193
l-59 -184 -156 -112 c-85 -62 -160 -115 -166 -119 -6 -3 -51 6 -100 22 l-89
27 -3 280 -2 280 247 81 c137 45 256 81 265 82 10 1 39 -30 72 -76z m4626
-668 l0 -745 -436 -600 c-240 -330 -439 -600 -442 -600 -7 1 -1404 1922 -1410
1938 -2 6 2245 746 2281 751 4 1 7 -334 7 -744z m-6830 509 l135 -44 90 -125
c50 -69 91 -129 93 -133 2 -7 -463 -162 -487 -162 -8 0 -11 78 -11 261 l0 260
23 -7 c12 -3 83 -26 157 -50z m1580 -204 c0 -182 -3 -260 -11 -260 -24 0 -489
155 -487 162 2 4 44 64 93 133 l90 125 150 49 c83 27 153 50 158 50 4 1 7
-116 7 -259z m-2771 181 c53 -39 105 -76 115 -84 19 -14 14 -22 -102 -181 -66
-92 -124 -167 -127 -167 -8 0 -105 133 -105 144 0 18 111 357 117 357 3 0 49
-31 102 -69z m3945 -105 c31 -95 56 -178 56 -183 0 -11 -100 -149 -107 -146
-12 5 -245 335 -240 340 15 14 223 163 229 163 4 0 32 -78 62 -174z m-3590 10
c25 -77 45 -141 43 -142 -1 -1 -48 31 -105 73 l-103 75 37 51 c65 91 69 96 75
89 4 -4 27 -70 53 -146z m3214 37 l22 -31 -102 -75 c-57 -42 -104 -74 -105
-73 -2 2 73 233 92 285 5 13 31 -17 93 -106z m-1918 -69 l175 -57 -135 -43
c-74 -24 -137 -40 -141 -36 -7 8 -105 143 -137 189 l-23 32 43 -14 c24 -8 122
-40 218 -71z m719 54 c-34 -48 -131 -182 -138 -190 -4 -4 -67 12 -141 36
l-135 43 215 71 c118 39 216 71 218 71 2 1 -7 -14 -19 -31z m-2705 -135 l67
-92 -78 -240 c-42 -133 -81 -241 -85 -241 -4 0 -8 160 -8 356 0 348 0 356 18
333 10 -13 49 -65 86 -116z m4556 -218 c0 -195 -4 -355 -8 -355 -4 0 -43 108
-85 240 l-78 241 83 114 c46 63 84 115 86 115 1 0 2 -160 2 -355z m-3917 206
l116 -84 51 -150 c27 -83 49 -151 47 -152 -13 -11 -410 -135 -415 -131 -35 35
-189 263 -184 272 4 7 61 86 127 177 73 102 124 163 131 159 6 -4 63 -45 127
-91z m3441 -80 l126 -173 -22 -32 c-37 -53 -160 -220 -168 -230 -6 -6 -400
115 -417 129 -2 1 20 69 47 151 l51 151 126 91 c70 50 128 91 129 89 1 -1 58
-80 128 -176z m-1686 41 l143 -47 -153 -212 c-84 -117 -155 -212 -158 -212 -3
0 -74 95 -158 212 l-153 212 138 47 c76 25 152 47 168 47 17 1 95 -20 173 -47z
m-358 -278 c85 -118 157 -219 158 -225 2 -5 -22 -45 -54 -89 l-57 -80 -200 0
-199 0 -169 123 -170 122 3 99 3 99 255 83 c140 46 260 83 265 83 6 0 80 -97
165 -215z m807 132 l258 -84 3 -99 3 -98 -170 -122 -169 -123 -199 0 -200 0
-57 80 c-32 44 -56 84 -54 89 6 18 313 440 320 441 4 0 123 -38 265 -84z
m-2692 -12 l43 -60 -116 -161 c-65 -88 -120 -159 -123 -157 -9 5 134 445 144
441 5 -1 28 -30 52 -63z m843 -62 c41 -30 72 -56 69 -58 -6 -6 -149 -54 -162
-54 -9 0 -46 102 -80 219 -8 27 -18 33 173 -107z m2606 4 c-21 -64 -42 -116
-48 -116 -6 0 -46 12 -89 26 -66 22 -77 29 -65 40 20 20 233 172 236 169 1 -1
-14 -55 -34 -119z m832 -96 c39 -121 69 -222 65 -224 -5 -4 -232 302 -235 316
-2 8 85 128 92 128 4 0 39 -99 78 -220z m-5366 -135 c346 -113 632 -205 634
-205 2 0 6 -19 9 -42 3 -24 8 -52 11 -63 5 -17 -181 -155 -1222 -910 -675
-489 -1232 -890 -1239 -890 -6 0 -67 76 -134 169 -118 162 -122 170 -108 193
16 27 1412 1952 1417 1953 1 0 286 -92 632 -205z m2238 94 l-3 -41 -69 51
c-46 33 -65 52 -55 56 8 2 39 13 69 23 l55 19 3 -33 c2 -19 2 -52 0 -75z
m1971 66 c9 -4 -5 -19 -40 -46 -93 -70 -89 -71 -89 15 l0 75 58 -20 c31 -10
63 -22 71 -24z m3446 -920 c385 -530 706 -975 714 -988 14 -23 10 -31 -108
-193 -67 -93 -128 -169 -134 -169 -7 0 -564 401 -1239 890 -1042 756 -1227
893 -1222 910 3 11 8 39 11 62 5 42 6 42 72 62 36 12 320 104 631 206 311 101
567 184 570 184 3 0 320 -434 705 -964z m-6342 735 l17 -26 -181 -59 -180 -60
-19 25 c-11 14 -19 28 -17 32 1 4 51 75 111 158 l109 151 71 -98 c40 -54 80
-109 89 -123z m3971 60 c58 -80 106 -147 106 -150 0 -3 -9 -16 -20 -30 l-19
-25 -181 60 -181 60 88 122 c48 67 91 119 95 115 4 -4 54 -72 112 -152z
m-3136 33 l92 -67 0 -113 0 -114 -152 3 -153 3 -47 140 c-25 77 -47 143 -47
147 -1 8 172 66 199 67 8 1 57 -29 108 -66z m2233 37 c55 -17 99 -34 98 -38 0
-4 -22 -70 -47 -147 l-47 -140 -152 -3 -153 -3 0 114 0 113 92 67 c51 37 97
67 102 67 5 0 53 -14 107 -30z m-2536 -177 c22 -69 41 -132 43 -140 3 -10 -33
-13 -187 -13 l-190 0 -56 78 -56 77 188 61 c103 34 195 62 203 63 11 1 27 -35
55 -126z m2883 64 l192 -62 -55 -78 -56 -77 -190 0 c-154 0 -190 3 -187 13 17
72 85 267 93 267 6 0 97 -28 203 -63z m-2312 -119 l127 -93 -118 -3 c-65 -1
-125 0 -132 2 -9 4 -13 31 -13 96 0 49 2 90 5 90 2 0 61 -42 131 -92z m1624 2
c0 -65 -4 -92 -13 -96 -7 -2 -67 -3 -132 -2 l-118 3 124 92 c68 50 127 92 132
92 4 1 7 -40 7 -89z m-2636 -24 c25 -36 46 -67 46 -70 0 -3 -106 -6 -235 -6
-143 0 -235 4 -235 10 0 7 336 124 372 129 3 1 27 -28 52 -63z m3760 -1 c97
-31 176 -60 176 -66 0 -5 -93 -9 -235 -9 -129 0 -235 3 -235 6 0 17 94 134
105 130 8 -3 92 -30 189 -61z m-1954 -12 l41 -58 -45 -3 c-25 -2 -67 -2 -92 0
l-45 3 41 58 c23 31 45 57 50 57 5 0 27 -26 50 -57z m-1645 -209 c43 -58 75
-107 73 -109 -4 -5 -648 202 -656 210 -3 3 110 5 250 5 l256 0 77 -106z m397
-61 c30 -93 53 -169 52 -171 -1 -2 -67 17 -147 42 l-144 46 -91 125 -91 125
183 0 184 0 54 -167z m278 -42 l0 -210 -88 30 -88 29 -52 164 c-28 90 -54 171
-58 180 -5 14 9 16 140 16 l146 0 0 -209z m488 122 c67 -49 122 -91 122 -95 0
-5 -223 -320 -247 -348 -2 -2 -76 20 -163 49 l-160 52 0 215 0 214 163 0 163
0 122 -87z m252 82 c0 -3 -23 -37 -51 -76 -35 -47 -55 -67 -63 -61 -6 5 -47
35 -91 67 -44 32 -84 62 -89 66 -6 5 58 9 142 9 84 0 152 -2 152 -5z m368 -81
l62 -87 -78 -56 c-42 -31 -98 -72 -124 -91 l-48 -33 -47 33 c-27 19 -83 60
-125 91 l-78 56 62 87 62 86 126 0 126 0 62 -86z m287 77 c-6 -4 -46 -34 -90
-66 -44 -32 -85 -62 -91 -67 -8 -6 -28 14 -63 61 -28 39 -51 73 -51 76 0 3 68
5 152 5 84 0 148 -4 143 -9z m405 -205 l0 -215 -160 -52 c-87 -29 -161 -51
-163 -49 -24 28 -247 343 -247 348 0 4 55 46 122 95 l122 87 163 0 163 0 0
-214z m326 198 c-4 -9 -30 -90 -58 -180 l-52 -164 -88 -29 -88 -30 0 210 0
209 146 0 c131 0 145 -2 140 -16z m322 -109 l-91 -125 -144 -46 c-80 -25 -146
-44 -147 -42 -1 2 22 78 51 171 l54 167 184 0 184 0 -91 -125z m650 120 c-8
-8 -652 -215 -656 -210 -2 2 30 51 73 109 l77 106 256 0 c140 0 253 -2 250 -5z
m-3988 -169 l345 -112 224 -308 224 -307 -22 -39 c-11 -21 -24 -57 -27 -81
l-6 -44 -617 -199 c-339 -110 -622 -202 -628 -204 -10 -3 -13 132 -13 656 l0
661 43 19 c24 11 54 33 68 50 17 21 30 29 44 26 12 -3 176 -56 365 -118z
m4030 90 c17 -19 48 -41 70 -50 l40 -16 0 -661 c0 -524 -3 -660 -12 -657 -7 2
-290 94 -629 204 l-617 199 -6 44 c-3 24 -16 60 -27 81 l-22 39 224 307 224
308 355 117 c195 64 359 117 363 118 4 1 21 -14 37 -33z m-4609 -56 c18 0 19
-23 19 -673 l0 -673 -1152 -375 c-634 -205 -1157 -374 -1162 -374 -13 0 -258
335 -254 347 2 5 556 411 1232 902 l1230 893 34 -23 c19 -13 43 -24 53 -24z
m6147 -884 c650 -472 1182 -862 1182 -866 0 -14 -246 -345 -256 -345 -5 0
-528 169 -1162 374 l-1152 375 0 673 c0 648 1 673 19 673 10 0 33 10 52 23
l34 24 50 -36 c28 -20 583 -423 1233 -895z m-3913 734 c61 -44 111 -84 112
-88 2 -4 -65 -56 -148 -116 l-151 -109 -76 23 c-43 13 -83 26 -89 30 -8 3 29
63 108 173 67 92 124 167 128 167 4 0 56 -36 116 -80z m555 -90 c78 -108 115
-167 107 -170 -6 -4 -46 -17 -89 -30 l-76 -23 -151 109 c-83 60 -150 112 -148
116 3 12 221 168 230 165 4 -1 62 -76 127 -167z m-1640 22 l115 -39 77 -234
c43 -129 78 -238 78 -244 0 -18 -37 30 -221 285 -219 302 -207 284 -183 276
11 -3 71 -23 134 -44z m2623 35 c-20 -34 -396 -548 -404 -553 -15 -9 -12 2 69
245 l77 235 125 42 c142 48 144 49 133 31z m-7074 -607 c226 -311 409 -570
407 -575 -10 -28 -779 -1075 -789 -1075 -7 0 -22 3 -34 6 l-23 6 0 1121 c0
966 2 1119 14 1102 8 -11 199 -274 425 -585z m11818 -1637 c-2 -1 -17 -6 -34
-9 -31 -6 -32 -4 -418 527 -214 294 -388 540 -389 546 -1 7 188 273 419 592
l420 579 3 -1116 c1 -613 1 -1117 -1 -1119z m-7119 2128 l72 -22 0 -201 c0
-121 -4 -198 -9 -192 -11 11 -151 445 -142 440 3 -2 39 -14 79 -25z m1142 -73
c77 -56 137 -105 133 -109 -5 -4 -70 -27 -145 -50 l-138 -43 -137 43 c-76 23
-141 46 -146 50 -8 8 260 209 281 210 7 1 75 -45 152 -101z m858 -115 c-39
-120 -74 -222 -79 -227 -5 -6 -9 71 -9 191 l0 202 78 24 c42 14 78 25 78 26 1
1 -30 -97 -68 -216z m-1735 101 c99 -33 135 -49 130 -58 -14 -22 -214 -296
-217 -296 -2 0 -17 5 -35 11 l-31 11 0 189 c0 104 3 189 7 189 5 0 70 -21 146
-46z m1607 -143 l0 -189 -32 -11 c-17 -6 -35 -8 -40 -3 -18 18 -217 296 -214
299 5 6 260 91 274 92 9 1 12 -43 12 -188z m-1281 38 c12 -4 -332 -263 -368
-277 -19 -7 -18 -5 112 174 l110 152 66 -22 c36 -13 72 -25 80 -27z m1063
-109 c124 -172 126 -175 107 -168 -9 3 -98 66 -198 139 l-183 133 78 27 c44
15 82 24 85 20 4 -3 53 -71 111 -151z m-872 46 c79 -25 129 -46 120 -50 -8 -3
-159 -53 -335 -110 -287 -93 -362 -114 -315 -86 13 8 395 287 395 289 0 0 61
-19 135 -43z m757 -106 c111 -80 195 -146 188 -148 -11 -3 -626 193 -650 206
-9 5 242 92 256 88 3 0 96 -66 206 -146z m-187 -78 l365 -119 6 -51 c4 -28 16
-64 27 -80 l21 -28 -385 -530 c-211 -291 -388 -529 -394 -529 -6 0 -183 238
-394 529 l-385 530 21 28 c11 16 23 52 27 80 l6 51 360 118 c198 64 360 117
360 118 0 0 164 -52 365 -117z m-1800 -1760 c-258 -795 -471 -1447 -474 -1449
-3 -3 -97 26 -210 63 l-206 69 2 1219 3 1219 635 206 635 206 42 -44 43 -44
-470 -1445z m3475 1215 l290 -94 3 -1219 2 -1220 -206 -68 c-113 -37 -208 -65
-210 -63 -3 3 -216 655 -474 1449 l-470 1445 43 44 42 45 345 -113 c190 -61
476 -154 635 -206z m-2455 -300 c214 -295 390 -540 390 -542 0 -3 -322 -448
-715 -989 l-715 -984 -103 32 c-229 73 -307 101 -307 111 0 5 211 658 468
1450 l469 1440 46 5 c25 3 49 9 53 13 4 4 11 6 15 5 5 -2 184 -245 399 -541z
m1309 524 l44 -6 468 -1440 c258 -792 469 -1445 469 -1450 0 -10 -78 -38 -307
-111 l-103 -32 -716 985 c-393 541 -714 988 -712 992 2 5 178 250 393 545 295
406 393 535 405 530 8 -4 35 -10 59 -13z m-3263 -2738 c-8 -8 -1402 450 -1418
466 -19 18 -868 1183 -868 1191 0 3 514 172 1143 376 l1142 371 3 -1200 c1
-660 0 -1202 -2 -1204z m6111 1961 c508 -164 923 -301 923 -304 -1 -8 -849
-1173 -868 -1191 -13 -13 -1391 -469 -1416 -469 -3 0 -6 542 -6 1204 l0 1204
223 -72 c122 -40 637 -207 1144 -372z m-8860 266 l121 -169 -510 -371 c-281
-204 -512 -369 -515 -367 -5 5 769 1076 777 1076 3 0 60 -76 127 -169z m10766
-366 c214 -295 386 -538 384 -540 -3 -3 -234 162 -515 366 l-510 371 121 169
c67 93 124 169 127 169 3 0 180 -241 393 -535z m-10499 -3 c64 -88 116 -163
116 -168 0 -10 -1248 -418 -1255 -411 -6 6 996 737 1012 737 6 1 63 -71 127
-158z m10352 -208 c277 -201 502 -369 499 -371 -7 -7 -1255 401 -1255 411 0
14 231 327 242 327 5 0 236 -165 514 -367z m-9777 -584 c232 -320 421 -582
419 -584 -2 -2 -478 151 -1058 340 l-1055 342 -3 35 -3 34 633 206 c348 113
636 207 639 207 3 1 196 -260 428 -580z m9634 370 l628 -203 -3 -35 -3 -34
-1055 -342 c-580 -189 -1056 -342 -1058 -340 -7 7 843 1165 852 1162 6 -3 294
-96 639 -208z m-4650 -768 c383 -528 699 -966 702 -973 4 -10 -172 -71 -694
-241 -385 -125 -705 -227 -711 -227 -6 0 -326 102 -711 227 -529 172 -698 231
-694 241 8 21 1398 1932 1405 1932 4 0 320 -432 703 -959z m-5609 108 c778
-252 1087 -357 1102 -372 28 -28 1323 -1814 1331 -1835 5 -11 3 -13 -8 -7 -33
20 -3486 2529 -3504 2546 -11 11 -15 19 -10 19 4 0 495 -158 1089 -351z
m10891 332 c-18 -17 -3471 -2526 -3504 -2546 -11 -6 -13 -4 -8 8 8 21 1303
1805 1331 1834 15 15 324 120 1096 371 591 193 1082 351 1090 351 11 1 9 -4
-5 -18z m-9027 -937 l672 -219 0 -670 0 -671 -32 -12 c-17 -6 -32 -11 -33 -9
-1 1 -295 406 -653 900 -359 493 -652 900 -652 903 0 3 6 4 13 1 6 -2 315
-103 685 -223z m6782 221 c0 -2 -293 -408 -652 -902 -358 -494 -652 -899 -653
-900 -1 -2 -16 3 -33 9 l-32 12 0 671 0 670 678 222 c706 230 692 226 692 218z
m-5865 -519 c99 -32 184 -61 189 -66 9 -9 -373 -1200 -386 -1200 -4 0 -8 300
-8 666 0 529 3 665 13 661 6 -2 93 -30 192 -61z m4455 -601 c0 -366 -4 -665
-8 -665 -13 0 -395 1191 -386 1200 8 7 365 127 387 129 4 1 7 -298 7 -664z
m-3977 445 c86 -28 157 -53 157 -56 0 -10 -778 -1073 -782 -1068 -3 2 73 244
169 537 95 292 183 562 194 599 l20 66 42 -13 c23 -8 113 -37 200 -65z m3732
-532 c106 -323 190 -590 187 -592 -2 -3 -180 236 -394 530 -214 295 -387 538
-384 541 2 3 92 33 198 68 128 42 194 59 197 51 3 -6 91 -275 196 -598z
m-2838 242 c372 -121 678 -222 680 -223 4 -4 -2098 -687 -2113 -687 -7 0 -19
11 -28 25 -16 24 -13 28 376 565 216 297 396 540 400 540 4 0 312 -99 685
-220z m2592 -323 c388 -533 391 -538 375 -562 -9 -14 -21 -25 -28 -25 -15 0
-2117 683 -2113 687 8 8 1353 442 1364 440 6 -1 187 -244 402 -540z m-741
-279 c595 -193 1082 -355 1082 -360 0 -4 -981 -8 -2180 -8 -1199 0 -2180 4
-2180 8 0 10 2143 710 2175 711 11 1 507 -157 1103 -351z"/>
</g>
</svg>
